# xmcd
#
# Track frame offsets:
#	150
#	29564
#	49269
#	72668
#	88875
#	110658
#	127760
#	151594
#	171324
#	194022
#
# Disc length: 2958 seconds
#
# Revision: 1
# Processed by: cddbd v1.5.2PL0 Copyright (c) Steve Scherf et al.
# Submitted via: EZCDAudioConverter 8.0.2.1
#
DISCID=8f0b8c0a
DTITLE=Hồng Trúc - 9. Tâm Sự Đời Tôi
DYEAR=2002
DGENRE=blues
TTITLE0=Tâm Sự Đời Tôi
TTITLE1=Ngang trái
TTITLE2=Đêm tâm sự
TTITLE3=Một mình thôi
TTITLE4=Tội tình
TTITLE5=Đổi thay
TTITLE6=Sao anh nỡ đành quên
TTITLE7=Quen nhau trên đường về
TTITLE8=Tâm sự ngày cưới
TTITLE9=Nhớ một người
EXTD=
EXTT0=
EXTT1=
EXTT2=
EXTT3=
EXTT4=
EXTT5=
EXTT6=
EXTT7=
EXTT8=
EXTT9=
PLAYORDER=
